HIERARCHY
ROOT ui
{
	 OFFSET 0 0 0
	 CHANNELS 3 XPosition YPosition Z Position
	 EndSite
	 {
	 OFFSET 0 -1 0
	 }
}
ROOT li
{
	 OFFSET 0 0 0
	 CHANNELS 3 XPosition YPosition Z Position
	 EndSite
	 {
	 OFFSET 0 -1 0
	 }
}
ROOT ul
{
	 OFFSET 0 0 0
	 CHANNELS 3 XPosition YPosition Z Position
	 EndSite
	 {
	 OFFSET 0 -1 0
	 }
}
ROOT ll
{
	 OFFSET 0 0 0
	 CHANNELS 3 XPosition YPosition Z Position
	 EndSite
	 {
	 OFFSET 0 -1 0
	 }
}
ROOT tt
{
	 OFFSET 0 0 0
	 CHANNELS 3 XPosition YPosition Z Position
	 EndSite
	 {
	 OFFSET 0 -1 0
	 }
}
ROOT tb
{
	 OFFSET 0 0 0
	 CHANNELS 3 XPosition YPosition Z Position
	 EndSite
	 {
	 OFFSET 0 -1 0
	 }
}
ROOT td
{
	 OFFSET 0 0 0
	 CHANNELS 3 XPosition YPosition Z Position
	 EndSite
	 {
	 OFFSET 0 -1 0
	 }
}
ROOT v
{
	 OFFSET 0 0 0
	 CHANNELS 3 XPosition YPosition Z Position
	 EndSite
	 {
	 OFFSET 0 -1 0
	 }
}
ROOT bn
{
	 OFFSET 0 0 0
	 CHANNELS 3 XPosition YPosition Z Position
	 EndSite
	 {
	 OFFSET 0 -1 0
	 }
}
MOTION
Frames: 24
Frame Time: 0.002
-0.011889785766601562	-0.004224904060363769	0		0.5802927856445312	-2.614129150390625	0		-0.98918603515625	0.21047500610351563	0		-0.39606549072265623	-2.7124677734375	0		1.669197265625	-0.8561111450195312	0		2.92557666015625	0.012658646583557129	0		4.32648046875	0.4585174255371094	0		6.08098046875	0.78793798828125	0		-0.4075744934082031	5.8794052734375	0		
0.008947598457336425	8.570600152015686E-4	0		0.6319967651367188	-2.620445556640625	0		-0.8945763549804687	0.19759402465820314	0		-0.4089275207519531	-2.6849482421875	0		1.6710142822265626	-0.85277490234375	0		2.90519677734375	0.0012872899770736694	0		4.32014892578125	0.45097052001953125	0		6.0736865234375	0.788824951171875	0		-0.3795699768066406	5.89939306640625	0		
0.00467988920211792	-0.002725383996963501	0		0.5788470458984375	-2.615390869140625	0		-1.0017713623046876	0.20034339904785156	0		-0.40000445556640624	-2.6747021484375	0		1.6848779296875	-0.846585205078125	0		2.9150576171875	0.007533582210540771	0		4.33093017578125	0.4512098083496094	0		6.078404296875	0.7668527221679687	0		-0.3788218688964844	5.898744140625	0		
0.009425875663757324	-0.006417920112609863	0		0.61552001953125	-2.62549609375	0		-0.9659896240234375	0.1992458038330078	0		-0.38803097534179687	-2.661488037109375	0		1.66978369140625	-0.8380146484375	0		2.9217255859375	-0.0021760389804840086	0		4.31671533203125	0.4507757568359375	0		6.078259765625	0.7675267333984375	0		-0.37706661987304685	5.89708935546875	0		
-0.00562697696685791	0.004151043891906739	0		0.5866152954101562	-2.60374560546875	0		-1.030064697265625	0.20844850158691405	0		-0.3818348388671875	-2.632193603515625	0		1.69263818359375	-0.8349349365234375	0		2.945773193359375	0.015891557693481446	0		4.33651611328125	0.4498991394042969	0		6.07812841796875	0.7681939086914062	0		-0.36313180541992185	5.90728173828125	0		
0.03316714477539062	0.001021710991859436	0		0.6363444213867188	-2.61201708984375	0		-0.9663375244140625	0.1999952392578125	0		-0.38781585693359377	-2.617740966796875	0		1.673735595703125	-0.8143139038085937	0		2.91646923828125	0.005645174026489258	0		4.32428857421875	0.4454322204589844	0		6.07801171875	0.76884716796875	0		-0.3784124755859375	5.8988525390625	0		
-0.01302445125579834	-0.0020077199935913084	0		0.5812147827148437	-2.609930908203125	0		-1.006516357421875	0.19788931274414062	0		-0.40163775634765625	-2.592187255859375	0		1.725638427734375	-0.8106167602539063	0		2.946310302734375	0.00462624216079712	0		4.34394970703125	0.43054220581054686	0		6.0742509765625	0.7522930908203125	0		-0.4408798828125	5.874033203125	0		
0.003861480951309204	-8.592270016670227E-4	0		0.6210908813476562	-2.60908251953125	0		-0.9706444091796875	0.19779452514648438	0		-0.40352468872070313	-2.572792724609375	0		1.68653955078125	-0.8077474365234375	0		2.942016357421875	-0.007960772037506104	0		4.33773486328125	0.42397637939453126	0		6.074162109375	0.7528989868164062	0		-0.40692562866210935	5.8789619140625	0		
-0.016299173355102538	-0.004238059043884277	0		0.5829850463867188	-2.60723095703125	0		-1.0067509155273437	0.19862722778320313	0		-0.3924917907714844	-2.5605732421875	0		1.72743505859375	-0.8069254760742187	0		2.97114990234375	0.011009801864624023	0		4.33762646484375	0.42431854248046874	0		6.0777421875	0.7706633911132813	0		-0.37775302124023435	5.898947265625	0		
0.01263990306854248	-0.0012629270553588868	0		0.5859385986328125	-2.601921875	0		-1.0068472900390626	0.19898414611816406	0		-0.47830987548828124	-2.537105224609375	0		1.6826356201171875	-0.7830008544921875	0		2.93393896484375	0.0028267719745635987	0		4.34143994140625	0.41759609985351565	0		6.077673828125	0.7712158203125	0		-0.3778194580078125	5.89930126953125	0		
-0.01837801742553711	0.004479229927062988	0		0.5759566650390625	-2.592455810546875	0		-0.9590654907226562	0.18870748901367188	0		-0.39216970825195313	-2.518880615234375	0		1.715608154296875	-0.7780986938476563	0		2.987913818359375	0.007449489116668701	0		4.348265625	0.41082235717773435	0		6.07761376953125	0.7717462768554687	0		-0.24461134338378906	5.9189150390625	0		
0.008442021369934083	-0.0035434749126434326	0		0.6356431274414063	-2.609909423828125	0		-0.9791106567382812	0.19129940795898437	0		-0.39302310180664063	-2.500539794921875	0		1.711660400390625	-0.7677294921875	0		2.95673876953125	1.640319973230362E-4	0		4.34819384765625	0.4111263122558594	0		6.0739033203125	0.7550692138671875	0		-0.4061854248046875	5.879337890625	0		
-0.01661744689941406	-0.002905991077423096	0		0.5997264404296875	-2.597133544921875	0		-0.9723406982421875	0.17852752685546874	0		-0.3979028625488281	-2.485161376953125	0		1.7377484130859375	-0.7557649536132812	0		2.971676025390625	2.658270001411438E-4	0		4.35795166015625	0.3972867431640625	0		6.0738603515625	0.7555525512695312	0		-0.3779447021484375	5.900287109375	0		
0.008332788467407226	-0.002933923006057739	0		0.5856126708984375	-2.60065771484375	0		-1.0284605712890624	0.17355868530273438	0		-0.5495883178710937	-2.454888427734375	0		1.70581591796875	-0.74606298828125	0		2.979497802734375	-0.009557876586914062	0		4.3548935546875	0.39659710693359373	0		6.0828671875	0.71246484375	0		-0.3759967346191406	5.897560546875	0		
0.012340020179748536	2.943359911441803E-4	0		0.5827979125976562	-2.582343505859375	0		-0.948406494140625	0.17980519104003906	0		-0.370612548828125	-2.453932373046875	0		1.74291943359375	-0.7352761840820312	0		3.01584033203125	0.019231779098510742	0		4.35095654296875	0.40389950561523436	0		6.07224951171875	0.7322435913085937	0		-0.37598806762695314	5.89784375	0		
0.012326245307922363	5.583310127258301E-4	0		0.580724365234375	-2.585057861328125	0		-0.9884674682617187	0.17659788513183594	0		-0.5161913452148438	-2.41776806640625	0		1.7310828857421876	-0.7208712158203125	0		2.9675185546875	-0.00390182900428772	0		4.35868505859375	0.3840259704589844	0		6.05954296875	0.7589674072265625	0		-0.40519888305664065	5.879490234375	0		
0.012329182624816894	8.058239817619324E-4	0		0.5947532348632812	-2.58099853515625	0		-0.960556396484375	0.169490966796875	0		-0.3881575622558594	-2.41418310546875	0		1.7192491455078125	-0.7074851684570312	0		2.997505859375	-0.005073550224304199	0		4.35869140625	0.3842314147949219	0		6.07380126953125	0.7571126098632812	0		-0.43921435546875	5.87418505859375	0		
-0.01669132614135742	-0.0015849430561065674	0		0.5796634521484375	-2.586578125	0		-1.0335321044921875	0.17068441772460938	0		-0.546894287109375	-2.391876708984375	0		1.71925732421875	-0.7072733764648438	0		3.001586669921875	7.132499665021896E-5	0		4.362607421875	0.37636212158203125	0		6.07015576171875	0.7402070922851562	0		-0.4040830993652344	5.87796435546875	0		
0.008331111907958984	-0.0016963720321655274	0		0.5827210083007812	-2.581410400390625	0		-0.9905743408203125	0.1653511505126953	0		-0.5146932983398438	-2.37607421875	0		1.728416015625	-0.6961984252929687	0		2.99976806640625	0.01227381706237793	0		4.351650390625	0.3776661376953125	0		6.06861865234375	0.7162738647460938	0		-0.37571417236328125	5.89881689453125	0		
-0.016638113021850587	-0.0011717649698257447	0		0.5509282836914062	-2.564802978515625	0		-1.0084636840820314	0.17179661560058593	0		-0.5385232543945313	-2.36255712890625	0		1.72761865234375	-0.682010498046875	0		3.0085087890625	-0.009682083129882812	0		4.362669921875	0.37666500854492185	0		6.068640625	0.71648046875	0		-0.3746230773925781	5.8980068359375	0		
0.012427889823913574	0.0016314120292663574	0		0.6018426513671875	-2.571293701171875	0		-0.9764872436523437	0.1675735778808594	0		-0.5403010864257812	-2.34534326171875	0		1.7129412841796876	-0.6586556396484375	0		3.0167724609375	0.008356487274169922	0		4.3676123046875	0.3697279663085937	0		6.0686630859375	0.716662841796875	0		-0.2685421447753906	5.89580810546875	0		
-0.01658165740966797	-8.219119906425476E-4	0		0.566999755859375	-2.5586767578125	0		-1.0215458374023438	0.16134153747558594	0		-0.5757880249023437	-2.3057021484375	0		1.7539835205078125	-0.6570452270507813	0		3.02761572265625	-0.005654480934143067	0		4.374564453125	0.3637528381347656	0		6.07390087890625	0.758185302734375	0		-0.43774542236328123	5.87419189453125	0		
0.008439288139343262	-9.965839982032775E-4	0		0.6158865356445312	-2.56717138671875	0		-0.984524169921875	0.1610204772949219	0		-0.571737548828125	-2.30159619140625	0		1.71316015625	-0.6443756103515625	0		3.015705322265625	-3.7761300802230835E-4	0		4.3774736328125	0.354820068359375	0		6.06870263671875	0.7169774780273438	0		-0.401623291015625	5.87687744140625	0		
-0.016540842056274416	-5.303739905357361E-4	0		0.55193798828125	-2.5622001953125	0		-1.0164497680664062	0.16558741760253906	0		-0.5975950927734375	-2.290112548828125	0		1.7192630615234374	-0.637332275390625	0		3.0584833984375	-0.01882927703857422	0		4.373416015625	0.34897048950195314	0		6.07358740234375	0.6944705200195312	0		-0.40636636352539063	5.891083984375	0		
